# xmcd
#
# Track frame offsets: 
#        150
#        24312
#        45921
#        69257
#        90693
#        110072
#        132931
#        151343
#        171855
#        193989
#        216382
#        234255
#        259799
#        278054
#        299237
#
# Disc length: 4310 seconds
#
# Revision: 0
# Processed by: cddbd v1.5.2PL0 Copyright (c) Steve Scherf et al.
# Submitted via: ExactAudioCopy v1.0b3
#
DISCID=dc10d40f
DTITLE=群星 - stereo情解毒HI-FI灵魂A
DYEAR=2014
DGENRE=stereo
TTITLE0=等你等了那么久
TTITLE1=我忘了怎么哭
TTITLE2=我终于失去了你
TTITLE3=再见青春
TTITLE4=北京北京
TTITLE5=因为爱情
TTITLE6=稳稳的幸福
TTITLE7=囚鸟
TTITLE8=当我想你的时候
TTITLE9=预谋
TTITLE10=半梦半醒之间
TTITLE11=谁在窗外流泪
TTITLE12=一万个舍不得
TTITLE13=你的心里有过谁
TTITLE14=谁在意我流下的泪
EXTD=
EXTT0=
EXTT1=
EXTT2=
EXTT3=
EXTT4=
EXTT5=
EXTT6=
EXTT7=
EXTT8=
EXTT9=
EXTT10=
EXTT11=
EXTT12=
EXTT13=
EXTT14=
PLAYORDER=
